<mxfile host="app.diagrams.net" modified="2023-12-05T13:10:55.910Z" agent="Mozilla/5.0 (Windows NT 10.0; Win64; x64) AppleWebKit/537.36 (KHTML, like Gecko) Chrome/119.0.0.0 Safari/537.36" version="22.1.5" etag="_Wao0vjbdt1sI1li7vlD" type="github">
  <diagram name="Page-1" id="Ruc0Fker7_qp9uWcHBFS">
    <mxGraphModel>
      <root>
        <mxCell id="0" />
        <mxCell id="1" parent="0" />
      </root>
    </mxGraphModel>
  </diagram>
</mxfile>
